<svg width="360" height="201" viewBox="0 0 360 201" fill="none" xmlns="http://www.w3.org/2000/svg">
<g clip-path="url(#clip0)">
<rect width="360" height="201" fill="white"/>
<path d="M0 0H360V640H0V0Z" fill="#1E90FF"/>
<g filter="url(#filter0_d)">
<path d="M61.8594 120V51.75H79.5312C84.0625 51.75 88.1562 52.5312 91.8125 54.0938C95.5 55.625 98.6406 57.7812 101.234 60.5625C103.859 63.3125 105.875 66.6094 107.281 70.4531C108.719 74.2969 109.438 78.5156 109.438 83.1094V88.7344C109.438 93.3281 108.719 97.5469 107.281 101.391C105.875 105.203 103.891 108.5 101.328 111.281C98.7656 114.031 95.6875 116.172 92.0938 117.703C88.5 119.234 84.5312 120 80.1875 120H61.8594ZM75.125 62.4375V109.406H80.1875C82.6562 109.406 84.8594 108.938 86.7969 108C88.7656 107.062 90.4219 105.703 91.7656 103.922C93.1406 102.141 94.1875 99.9844 94.9062 97.4531C95.625 94.8906 95.9844 91.9844 95.9844 88.7344V83.0156C95.9844 79.9531 95.625 77.1719 94.9062 74.6719C94.2188 72.1406 93.1719 69.9688 91.7656 68.1562C90.3906 66.3438 88.6719 64.9375 86.6094 63.9375C84.5781 62.9375 82.2188 62.4375 79.5312 62.4375H75.125ZM124.503 120V51.75H147.425C151.144 51.75 154.519 52.125 157.55 52.875C160.612 53.625 163.222 54.7656 165.378 56.2969C167.534 57.8281 169.191 59.7656 170.347 62.1094C171.534 64.4531 172.128 67.2188 172.128 70.4062C172.097 73.5938 171.237 76.4531 169.55 78.9844C167.894 81.5156 165.441 83.4375 162.191 84.75C164.159 85.25 165.862 86 167.3 87C168.737 88 169.925 89.1875 170.862 90.5625C171.831 91.9062 172.534 93.3906 172.972 95.0156C173.441 96.6094 173.675 98.2656 173.675 99.9844C173.675 103.266 173.112 106.156 171.987 108.656C170.862 111.156 169.253 113.25 167.159 114.938C165.066 116.625 162.519 117.891 159.519 118.734C156.519 119.578 153.144 120 149.394 120H124.503ZM137.722 89.9062V109.359H149.441C153.034 109.328 155.769 108.453 157.644 106.734C159.55 104.984 160.503 102.703 160.503 99.8906C160.534 96.7656 159.691 94.3281 157.972 92.5781C156.253 90.8281 153.597 89.9375 150.003 89.9062H137.722ZM137.722 80.3906H147.519C151.175 80.3594 153.987 79.5938 155.956 78.0938C157.925 76.5938 158.925 74.3906 158.956 71.4844C158.956 68.2969 157.972 66.0156 156.003 64.6406C154.034 63.2344 151.191 62.5156 147.472 62.4844H137.722V80.3906ZM234.678 90.8906C234.678 95.2656 234.1 99.2969 232.944 102.984C231.787 106.672 230.116 109.844 227.928 112.5C225.741 115.156 223.069 117.234 219.912 118.734C216.787 120.203 213.256 120.938 209.319 120.938C205.381 120.938 201.881 120.203 198.819 118.734C195.756 117.234 193.178 115.156 191.084 112.5C188.991 109.812 187.397 106.641 186.303 102.984C185.209 99.2969 184.662 95.2656 184.662 90.8906V80.9531C184.662 76.5781 185.209 72.5469 186.303 68.8594C187.397 65.1719 188.991 62 191.084 59.3438C193.178 56.6562 195.741 54.5625 198.772 53.0625C201.834 51.5625 205.334 50.8125 209.272 50.8125C213.241 50.8125 216.787 51.5625 219.912 53.0625C223.069 54.5625 225.741 56.6562 227.928 59.3438C230.116 62 231.787 65.1719 232.944 68.8594C234.1 72.5469 234.678 76.5781 234.678 80.9531V90.8906ZM221.319 80.8594C221.319 78.0781 221.084 75.5156 220.616 73.1719C220.178 70.8281 219.475 68.8125 218.506 67.125C217.537 65.4375 216.287 64.125 214.756 63.1875C213.256 62.2188 211.428 61.7344 209.272 61.7344C207.147 61.7344 205.366 62.2188 203.928 63.1875C202.491 64.125 201.334 65.4375 200.459 67.125C199.584 68.8125 198.959 70.8281 198.584 73.1719C198.209 75.5156 198.022 78.0781 198.022 80.8594V90.8906C198.022 93.6406 198.209 96.1875 198.584 98.5312C198.959 100.875 199.584 102.906 200.459 104.625C201.334 106.344 202.491 107.688 203.928 108.656C205.366 109.625 207.162 110.109 209.319 110.109C211.444 110.109 213.256 109.625 214.756 108.656C216.287 107.688 217.522 106.359 218.459 104.672C219.428 102.953 220.147 100.922 220.616 98.5781C221.084 96.2344 221.319 93.6719 221.319 90.8906V80.8594ZM272.619 76.2188L284.759 51.75H300.228L281.009 85.5938L300.697 120H285.322L272.806 95.1562L260.337 120H244.775L264.462 85.5938L245.291 51.75H260.666L272.619 76.2188Z" fill="white"/>
</g>
<g filter="url(#filter1_d)">
<path d="M50.0023 156.47C-77.8743 -104.211 438.846 -135.424 309.212 175" stroke="#FFFDFD" stroke-width="10"/>
</g>
<path d="M338.578 222.989C331.712 242.185 310.144 252.115 290.337 245.031C270.531 237.948 260.151 216.592 267.016 197.396C273.882 178.199 295.45 168.27 315.257 175.353C335.063 182.437 345.443 203.792 338.578 222.989Z" fill="white"/>
<path d="M338.578 222.989C331.712 242.185 310.144 252.115 290.337 245.031C270.531 237.948 260.151 216.592 267.016 197.396C273.882 178.199 295.45 168.27 315.257 175.353C335.063 182.437 345.443 203.792 338.578 222.989Z" stroke="black" stroke-opacity="0.05" stroke-width="4"/>
<path d="M338.578 222.989C331.712 242.185 310.144 252.115 290.337 245.031C270.531 237.948 260.151 216.592 267.016 197.396C273.882 178.199 295.45 168.27 315.257 175.353C335.063 182.437 345.443 203.792 338.578 222.989Z" stroke="url(#paint0_linear)" stroke-width="4"/>
<g filter="url(#filter2_d)">
<path d="M180.129 336.329C48.5813 31.1475 -20.8085 171.494 88.3272 362.661" stroke="#FCFEFF" stroke-width="10"/>
</g>
</g>
<defs>
<filter id="filter0_d" x="57.8594" y="50.8125" width="246.837" height="78.125" filterUnits="userSpaceOnUse" color-interpolation-filters="sRGB">
<feFlood flood-opacity="0" result="BackgroundImageFix"/>
<feColorMatrix in="SourceAlpha" type="matrix" values="0 0 0 0 0 0 0 0 0 0 0 0 0 0 0 0 0 0 127 0"/>
<feOffset dy="4"/>
<feGaussianBlur stdDeviation="2"/>
<feColorMatrix type="matrix" values="0 0 0 0 0 0 0 0 0 0 0 0 0 0 0 0 0 0 0.25 0"/>
<feBlend mode="normal" in2="BackgroundImageFix" result="effect1_dropShadow"/>
<feBlend mode="normal" in="SourceGraphic" in2="effect1_dropShadow" result="shape"/>
</filter>
<filter id="filter1_d" x="20.4814" y="-53.4557" width="318.778" height="238.382" filterUnits="userSpaceOnUse" color-interpolation-filters="sRGB">
<feFlood flood-opacity="0" result="BackgroundImageFix"/>
<feColorMatrix in="SourceAlpha" type="matrix" values="0 0 0 0 0 0 0 0 0 0 0 0 0 0 0 0 0 0 127 0"/>
<feOffset dy="4"/>
<feGaussianBlur stdDeviation="2"/>
<feColorMatrix type="matrix" values="0 0 0 0 0 0 0 0 0 0 0 0 0 0 0 0 0 0 0.25 0"/>
<feBlend mode="normal" in2="BackgroundImageFix" result="effect1_dropShadow"/>
<feBlend mode="normal" in="SourceGraphic" in2="effect1_dropShadow" result="shape"/>
</filter>
<filter id="filter2_d" x="25.3401" y="153.33" width="163.38" height="219.81" filterUnits="userSpaceOnUse" color-interpolation-filters="sRGB">
<feFlood flood-opacity="0" result="BackgroundImageFix"/>
<feColorMatrix in="SourceAlpha" type="matrix" values="0 0 0 0 0 0 0 0 0 0 0 0 0 0 0 0 0 0 127 0"/>
<feOffset dy="4"/>
<feGaussianBlur stdDeviation="2"/>
<feColorMatrix type="matrix" values="0 0 0 0 0 0 0 0 0 0 0 0 0 0 0 0 0 0 0.25 0"/>
<feBlend mode="normal" in2="BackgroundImageFix" result="effect1_dropShadow"/>
<feBlend mode="normal" in="SourceGraphic" in2="effect1_dropShadow" result="shape"/>
</filter>
<linearGradient id="paint0_linear" x1="315.93" y1="173.47" x2="289.664" y2="246.914" gradientUnits="userSpaceOnUse">
<stop stop-color="white"/>
<stop offset="1" stop-color="white" stop-opacity="0"/>
</linearGradient>
<clipPath id="clip0">
<rect width="360" height="201" fill="white"/>
</clipPath>
</defs>
</svg>
